<?xml version="1.0" encoding="utf-8"?>
<svg viewBox="64.9339 98.8835 138.1361 29.9965" xmlns="http://www.w3.org/2000/svg">
  <g>
    <path d="M 107.93 110.23 Q 107.93 111.63 107.27 112.86 Q 106.6 114.08 105.19 114.83 Q 103.78 115.58 101.63 115.58 L 98.7 115.58 L 98.7 122.28 L 95.2 122.28 L 95.2 104.83 L 101.63 104.83 Q 103.65 104.83 105.08 105.53 Q 106.5 106.23 107.22 107.46 Q 107.93 108.68 107.93 110.23 Z M 101.48 112.76 Q 102.93 112.76 103.63 112.1 Q 104.33 111.43 104.33 110.23 Q 104.33 107.68 101.48 107.68 L 98.7 107.68 L 98.7 112.76 L 101.48 112.76 Z M 108.3 115.31 Q 108.3 113.21 109.14 111.58 Q 109.98 109.96 111.42 109.08 Q 112.85 108.21 114.63 108.21 Q 116.18 108.21 117.34 108.83 Q 118.5 109.46 119.2 110.41 L 119.2 108.43 L 122.73 108.43 L 122.73 122.28 L 119.2 122.28 L 119.2 120.26 Q 118.53 121.23 117.34 121.87 Q 116.15 122.51 114.6 122.51 Q 112.85 122.51 111.42 121.61 Q 109.98 120.71 109.14 119.07 Q 108.3 117.43 108.3 115.31 Z M 119.2 115.36 Q 119.2 114.08 118.7 113.17 Q 118.2 112.26 117.35 111.77 Q 116.5 111.28 115.53 111.28 Q 114.55 111.28 113.73 111.76 Q 112.9 112.23 112.39 113.15 Q 111.88 114.06 111.88 115.31 Q 111.88 116.56 112.39 117.5 Q 112.9 118.43 113.74 118.93 Q 114.58 119.43 115.53 119.43 Q 116.5 119.43 117.35 118.95 Q 118.2 118.46 118.7 117.55 Q 119.2 116.63 119.2 115.36 Z M 129.04 110.43 Q 129.71 109.48 130.9 108.85 Q 132.09 108.21 133.61 108.21 Q 135.39 108.21 136.82 109.08 Q 138.26 109.96 139.1 111.57 Q 139.94 113.18 139.94 115.31 Q 139.94 117.43 139.1 119.07 Q 138.26 120.71 136.82 121.61 Q 135.39 122.51 133.61 122.51 Q 132.09 122.51 130.92 121.88 Q 129.76 121.26 129.04 120.31 L 129.04 128.88 L 125.54 128.88 L 125.54 108.43 L 129.04 108.43 L 129.04 110.43 Z M 136.36 115.31 Q 136.36 114.06 135.85 113.15 Q 135.34 112.23 134.5 111.76 Q 133.66 111.28 132.69 111.28 Q 131.74 111.28 130.9 111.77 Q 130.06 112.26 129.55 113.18 Q 129.04 114.11 129.04 115.36 Q 129.04 116.61 129.55 117.53 Q 130.06 118.46 130.9 118.95 Q 131.74 119.43 132.69 119.43 Q 133.66 119.43 134.5 118.93 Q 135.34 118.43 135.85 117.51 Q 136.36 116.58 136.36 115.31 Z M 154.74 115.06 Q 154.74 115.81 154.64 116.41 L 144.52 116.41 Q 144.64 117.91 145.57 118.76 Q 146.49 119.61 147.84 119.61 Q 149.79 119.61 150.62 117.93 L 154.39 117.93 Q 153.79 119.93 152.09 121.22 Q 150.39 122.51 147.92 122.51 Q 145.92 122.51 144.33 121.62 Q 142.74 120.73 141.86 119.11 Q 140.97 117.48 140.97 115.36 Q 140.97 113.21 141.84 111.58 Q 142.72 109.96 144.29 109.08 Q 145.87 108.21 147.92 108.21 Q 149.89 108.21 151.46 109.06 Q 153.02 109.91 153.88 111.47 Q 154.74 113.03 154.74 115.06 Z M 151.12 114.06 Q 151.09 112.71 150.14 111.9 Q 149.19 111.08 147.82 111.08 Q 146.52 111.08 145.63 111.87 Q 144.74 112.66 144.54 114.06 Z M 159.37 110.58 Q 160.04 109.48 161.13 108.86 Q 162.22 108.23 163.62 108.23 L 163.62 111.91 L 162.69 111.91 Q 161.04 111.91 160.21 112.68 Q 159.37 113.46 159.37 115.38 L 159.37 122.28 L 155.87 122.28 L 155.87 108.43 L 159.37 108.43 L 159.37 110.58 Z M 170.5 122.51 Q 168.8 122.51 167.45 121.9 Q 166.1 121.28 165.32 120.23 Q 164.53 119.18 164.45 117.91 L 167.98 117.91 Q 168.08 118.71 168.77 119.23 Q 169.45 119.76 170.48 119.76 Q 171.48 119.76 172.04 119.36 Q 172.6 118.96 172.6 118.33 Q 172.6 117.66 171.92 117.32 Q 171.23 116.98 169.73 116.58 Q 168.18 116.21 167.19 115.81 Q 166.2 115.41 165.49 114.58 Q 164.78 113.76 164.78 112.36 Q 164.78 111.21 165.44 110.26 Q 166.1 109.31 167.34 108.76 Q 168.58 108.21 170.25 108.21 Q 172.73 108.21 174.2 109.45 Q 175.68 110.68 175.83 112.78 L 172.48 112.78 Q 172.4 111.96 171.79 111.47 Q 171.18 110.98 170.15 110.98 Q 169.2 110.98 168.69 111.33 Q 168.18 111.68 168.18 112.31 Q 168.18 113.01 168.88 113.37 Q 169.58 113.73 171.05 114.11 Q 172.55 114.48 173.53 114.88 Q 174.5 115.28 175.22 116.12 Q 175.93 116.96 175.95 118.33 Q 175.95 119.53 175.29 120.48 Q 174.63 121.43 173.39 121.97 Q 172.15 122.51 170.5 122.51 Z M 189.38 104.83 L 189.38 117.08 Q 189.38 119.63 187.9 121.05 Q 186.43 122.46 183.95 122.46 Q 181.45 122.46 179.92 121.01 Q 178.38 119.56 178.38 116.96 L 181.88 116.96 Q 181.9 118.08 182.42 118.71 Q 182.93 119.33 183.9 119.33 Q 184.85 119.33 185.35 118.73 Q 185.85 118.13 185.85 117.08 L 185.85 104.83 Z M 196.89 122.46 Q 195.07 122.46 193.61 121.83 Q 192.14 121.21 191.29 120.03 Q 190.44 118.86 190.42 117.26 L 194.17 117.26 Q 194.24 118.33 194.93 118.96 Q 195.62 119.58 196.82 119.58 Q 198.04 119.58 198.74 119 Q 199.44 118.41 199.44 117.46 Q 199.44 116.68 198.97 116.18 Q 198.49 115.68 197.78 115.4 Q 197.07 115.11 195.82 114.76 Q 194.12 114.26 193.06 113.77 Q 191.99 113.28 191.23 112.3 Q 190.47 111.31 190.47 109.66 Q 190.47 108.11 191.24 106.96 Q 192.02 105.81 193.42 105.2 Q 194.82 104.58 196.62 104.58 Q 199.32 104.58 201.01 105.9 Q 202.69 107.21 202.87 109.56 L 199.02 109.56 Q 198.97 108.66 198.26 108.07 Q 197.54 107.48 196.37 107.48 Q 195.34 107.48 194.73 108.01 Q 194.12 108.53 194.12 109.53 Q 194.12 110.23 194.58 110.7 Q 195.04 111.16 195.73 111.45 Q 196.42 111.73 197.67 112.11 Q 199.37 112.61 200.44 113.11 Q 201.52 113.61 202.29 114.61 Q 203.07 115.61 203.07 117.23 Q 203.07 118.63 202.34 119.83 Q 201.62 121.03 200.22 121.75 Q 198.82 122.46 196.89 122.46 Z" style="paint-order: fill; fill: rgb(144, 142, 208);"/>
    <g class="" style="" transform="matrix(0.063046, 0, 0, 0.063046, 63.789284, 97.744904)">
      <path d="M18.906 18.06v369.23C112.4 252.618 269.43 157.82 430.37 133.76L228.42 18.06H18.906zM325.72 179.327C200.38 223.948 86.405 311.052 18.157 422.568v33.602c113.074-111.488 277-176.38 434.373-175.25L325.72 179.326zm25.56 128.682c-125.218 21.642-246.974 83.6-333.124 174.812v10.297h58.916c113.9-65.58 251.166-95.325 379.492-80.814L351.28 308.008zm-2.253 120.96c-80.122 5.884-160.432 27.957-232.61 64.15h266.42l-33.81-64.15z" fill-opacity="1" style="fill: rgb(144, 142, 208);"/>
    </g>
  </g>
</svg>